<svg xmlns="http://www.w3.org/2000/svg" viewBox="0 0 96 96">
  <rect width="96" height="96" rx="20" fill="#EFE6D3"/>
  <rect x="10" y="10" width="76" height="76" rx="14" fill="none" stroke="#C89440" stroke-width="3"/>
  <g fill="#A6302A">
    <path d="M48 22c3 8 6 11 14 14-8 3-11 6-14 14-3-8-6-11-14-14 8-3 11-6 14-14z"/>
    <circle cx="48" cy="36" r="5" fill="#C89440"/>
  </g>
  <g fill="none" stroke="#1F3A5F" stroke-width="3.4" stroke-linecap="round">
    <path d="M22 62c6-7 12 7 18 0s12 7 18 0 12 7 16 1"/>
    <path d="M22 71c6-7 12 7 18 0s12 7 18 0 12 7 16 1"/>
  </g>
</svg>
